<?xml version="1.0" standalone="no"?>
<!DOCTYPE svg PUBLIC "-//W3C//DTD SVG 20010904//EN"
 "http://www.w3.org/TR/2001/REC-SVG-20010904/DTD/svg10.dtd">
<svg version="1.0" xmlns="http://www.w3.org/2000/svg"
 width="612.000000pt" height="406.000000pt" viewBox="0 0 612.000000 406.000000"
 preserveAspectRatio="xMidYMid meet">

<g transform="translate(0.000000,406.000000) scale(0.100000,-0.100000)"
fill="#000000" stroke="none">
<path d="M4656 2823 c-4 -4 -37 -7 -74 -8 l-67 0 -3 -32 c-2 -24 3 -39 22 -58
29 -28 52 -31 101 -11 30 13 35 13 50 -4 10 -11 20 -19 24 -18 35 4 44 -32 13
-54 -27 -19 -33 -57 -21 -124 12 -63 23 -84 46 -84 10 0 13 7 8 23 -5 19 -4
20 5 5 8 -14 25 -18 70 -18 l60 0 0 39 c0 56 -15 88 -66 143 -35 38 -44 54
-44 83 0 52 -25 103 -55 115 -31 12 -59 13 -69 3z"/>
<path d="M4610 2545 c0 -28 19 -26 38 5 11 18 10 20 -13 20 -20 0 -25 -5 -25
-25z"/>
<path d="M2852 2538 c-7 -7 -12 -18 -12 -24 0 -15 28 -44 42 -44 6 0 0 9 -13
19 -21 17 -22 22 -11 40 14 24 12 27 -6 9z"/>
<path d="M2907 2504 c1 -35 -3 -47 -20 -59 -12 -8 -17 -15 -11 -15 21 0 44 37
44 73 0 20 -3 38 -7 40 -5 3 -7 -15 -6 -39z"/>
<path d="M2957 2543 c-9 -9 -9 -51 1 -56 4 -3 7 10 7 29 0 19 0 34 -1 34 0 0
-4 -3 -7 -7z"/>
<path d="M3010 2533 c11 -17 11 -24 1 -36 -9 -12 -9 -16 0 -19 9 -3 6 -11 -9
-26 -12 -12 -18 -22 -13 -22 16 0 41 43 41 71 0 15 -7 33 -17 40 -15 13 -15
12 -3 -8z"/>
<path d="M4607 2418 c2 -5 22 -8 43 -8 21 0 41 3 43 8 3 4 -17 7 -43 7 -26 0
-46 -3 -43 -7z"/>
<path d="M4831 2365 c3 -5 14 -30 26 -55 11 -25 23 -62 26 -83 l6 -37 -55 6
c-30 4 -54 3 -54 -2 0 -5 12 -9 28 -9 15 -1 54 -4 87 -7 33 -3 50 -4 37 -1
-13 2 -25 10 -27 16 -29 103 -50 159 -63 169 -8 7 -13 9 -11 3z"/>
<path d="M4710 2329 c-46 -28 -45 -28 -33 -40 13 -13 96 26 91 43 -7 20 -22
19 -58 -3z"/>
<path d="M4416 2325 c4 -10 20 -15 50 -15 32 0 44 4 44 15 0 11 -12 15 -50 15
-40 0 -48 -3 -44 -15z"/>
<path d="M3027 2165 c-29 -14 -36 -79 -11 -106 25 -28 146 -27 174 1 25 25 26
72 3 92 -22 19 -136 28 -166 13z"/>
<path d="M2682 2158 c-19 -19 -15 -82 6 -101 28 -26 145 -24 172 3 24 24 26
57 4 88 -13 19 -24 22 -93 22 -46 0 -82 -5 -89 -12z"/>
<path d="M4793 2130 c0 -25 2 -35 4 -22 2 12 2 32 0 45 -2 12 -4 2 -4 -23z"/>
<path d="M1470 2103 c-47 -25 -68 -78 -51 -134 12 -39 42 -79 59 -79 16 0 33
50 23 68 -11 21 -4 42 15 42 7 0 20 13 29 29 9 19 25 32 45 36 l31 7 -26 19
c-36 29 -83 33 -125 12z"/>
<path d="M4744 2027 c12 -72 30 -73 41 -2 6 38 5 40 -20 42 -26 1 -27 0 -21
-40z"/>
<path d="M4791 1954 c20 -25 111 -74 139 -75 64 -4 -82 -19 -240 -25 -107 -4
-178 -11 -182 -18 -11 -17 -10 -647 2 -807 11 -154 27 -316 36 -361 4 -21 11
-28 30 -28 22 0 24 -4 24 -45 0 -34 5 -47 20 -55 11 -6 20 -16 20 -22 0 -6
-11 -3 -25 6 -24 16 -27 15 -92 -29 l-68 -45 -1134 0 -1134 0 -54 42 -55 42
-34 -19 c-19 -10 -37 -16 -40 -12 -3 3 8 13 25 22 l31 16 -32 40 c-30 36 -36
39 -68 35 -19 -3 -54 -6 -77 -6 l-43 0 0 -80 0 -79 -122 -4 c-68 -1 620 -3
1527 -3 908 0 1617 2 1578 3 -83 4 -79 -2 -86 121 l-4 72 30 0 30 0 -6 78 c-9
106 -13 639 -5 647 3 3 18 -45 33 -107 39 -159 154 -590 158 -594 2 -2 20 1
40 7 45 12 53 8 62 -32 5 -23 16 -35 43 -46 21 -9 32 -18 25 -20 -7 -2 -21 1
-33 7 -23 13 -25 10 -34 -60 -4 -25 -9 -60 -13 -79 l-6 -34 24 17 c13 9 47 36
74 60 28 24 63 55 78 68 l29 23 -28 69 c-20 51 -24 70 -15 76 9 5 5 33 -18
113 -54 184 -142 553 -196 821 l-52 260 -39 13 c-21 8 -61 20 -88 28 -44 13
-47 13 -35 -1z"/>
<path d="M1747 1873 c-4 -3 -7 -23 -7 -44 0 -27 -5 -39 -17 -42 -10 -3 1 -5
25 -6 23 0 45 -2 48 -3 4 -2 20 21 36 50 l30 52 -54 0 c-30 0 -58 -3 -61 -7z"/>
<path d="M2147 1874 c-10 -10 -8 -136 1 -152 7 -9 39 -12 128 -10 l119 3 0 80
0 80 -121 3 c-66 1 -123 -1 -127 -4z"/>
<path d="M2554 1867 c-3 -8 -4 -45 -2 -83 l3 -69 120 0 120 0 0 80 0 80 -118
3 c-93 2 -119 0 -123 -11z"/>
<path d="M2957 1874 c-9 -9 -9 -126 -1 -148 5 -13 24 -16 105 -16 92 0 100 2
124 26 23 23 26 33 23 82 l-3 57 -121 3 c-66 1 -123 -1 -127 -4z"/>
<path d="M1564 1855 c25 -19 46 -19 46 0 0 10 -10 15 -32 15 -31 -1 -32 -1
-14 -15z"/>
<path d="M1503 1800 c-36 -15 -27 -19 14 -8 20 5 55 8 77 5 26 -4 35 -2 25 4
-18 11 -87 11 -116 -1z"/>
<path d="M1653 1793 c9 -2 23 -2 30 0 6 3 -1 5 -18 5 -16 0 -22 -2 -12 -5z"/>
<path d="M2956 1554 c-9 -24 -7 -142 3 -148 5 -3 26 13 46 35 21 23 60 61 87
85 l49 44 -90 0 c-72 0 -90 -3 -95 -16z"/>
<path d="M1675 1531 c26 -52 48 -51 38 2 -4 20 -11 27 -29 27 -24 0 -24 -1 -9
-29z"/>
<path d="M1277 1478 c-48 -98 -68 -151 -60 -159 4 -4 20 -5 36 -2 22 4 27 11
28 37 1 33 1 38 18 117 6 28 10 54 8 56 -3 2 -16 -20 -30 -49z"/>
<path d="M1755 1341 c-67 -13 -120 -33 -208 -76 -93 -46 -131 -60 -177 -63
-48 -4 -61 -1 -78 16 l-21 21 -7 -45 c-3 -24 -4 -90 -2 -147 3 -67 -2 -146
-14 -232 -10 -71 -18 -135 -18 -141 0 -6 -67 -23 -150 -38 -168 -32 -153 -20
-165 -128 l-6 -58 -45 0 c-24 0 -44 2 -44 3 0 2 9 30 20 62 11 32 20 61 20 65
0 4 -19 14 -41 23 l-41 16 -100 -87 -99 -87 413 -3 c226 -1 414 1 417 6 3 4
22 18 41 30 67 40 90 114 131 423 l12 96 66 10 c36 6 73 14 82 17 14 6 17 -5
22 -70 4 -42 7 -124 7 -181 0 -76 3 -103 13 -103 6 0 22 -3 35 -6 16 -5 22 -2
22 9 0 20 22 27 87 27 39 0 59 -5 67 -16 9 -12 17 -13 40 -4 l28 10 -7 273
c-8 307 -14 336 -77 375 -43 27 -96 27 -223 3z m-1006 -865 c-11 -24 -29 -36
-29 -18 0 12 31 54 36 49 3 -2 -1 -16 -7 -31z"/>
<path d="M4938 443 c23 -2 59 -2 80 0 20 2 1 4 -43 4 -44 0 -61 -2 -37 -4z"/>
<path d="M5143 443 c9 -2 25 -2 35 0 9 3 1 5 -18 5 -19 0 -27 -2 -17 -5z"/>
<path d="M5283 443 c42 -2 112 -2 155 0 42 1 7 3 -78 3 -85 0 -120 -2 -77 -3z"/>
</g>
</svg>
